<?xml version="1.0" encoding="utf-8"?>
<svg version="1.1" xmlns="http://www.w3.org/2000/svg" xmlns:xlink="http://www.w3.org/1999/xlink" x="0px" y="0px"
	 viewBox="0 0 500 500" style="enable-background:new 0 0 500 500;" xml:space="preserve">
<g id="BACKGROUND">
	<rect style="fill:#FFFFFF;" width="500" height="500"/>
</g>
<g id="OBJECTS">
	<g>
		<g>
			<path style="fill:#DCE6EF;" d="M459.657,351.489c-3.668-9.419-6.405-19.416-9.397-29.975
				c-2.016-7.116-5.266-15.078-12.314-17.321c-6.855-2.182-14.236,2.34-18.453,8.169c-4.217,5.828-6.341,12.895-9.948,19.12
				c-6.536,11.281-18.115,16.009-27.682,6.091c-13.668-14.167-19.82-33.478-28.487-50.758
				c-6.292-12.545-11.558-27.231-19.485-38.793c-12.089-17.631-28.665-32.664-50.709-32.664
				c-13.973,2.117-26.284,14.493-34.616,29.959c-8.332,15.466-13.193,33.859-17.335,52.209
				c-7.533,33.37-13.052,67.514-18.562,101.614c0,0,278.113-3.244,278.116-3.244c-1.105,0.013-7.925-9.101-9.231-10.365
				C470.875,375.198,464.467,363.84,459.657,351.489z"/>
			<g>
				<path style="fill:#6AA5FE;" d="M406.867,367.39c-0.545,10.811-12.309,29.712-23.12,29.167
					c-10.811-0.545-16.576-20.329-16.031-31.141c0.545-10.811,12.059-64.913,22.87-64.368
					C401.397,301.593,407.412,356.578,406.867,367.39z"/>
				
					<line style="fill:none;stroke:#1A55B5;stroke-width:0.8675;stroke-linecap:round;stroke-linejoin:round;stroke-miterlimit:10;" x1="390.066" y1="308.077" x2="384.614" y2="395.689"/>
				<path style="fill:#FFC957;" d="M382.123,365.138c-2.462,5.409-4.336,11.084-5.469,16.995c-0.575,2.998-0.937,6.246,0.42,8.98
					c1.482,2.986,4.77,4.727,8.06,5.267c8.036,1.32,16.074-3.602,20.784-10.245c4.71-6.643,6.75-14.763,8.622-22.688
					c1.474-6.24,2.923-12.572,5.701-18.388c1.191-2.493,8.165-12.116,4.866-14.612c-4.513-3.545-17.576,0.312-25.947,9.45
					C392.265,347.423,386.333,355.89,382.123,365.138z"/>
				
					<path style="fill:none;stroke:#6AA5FE;stroke-width:0.8675;stroke-linecap:round;stroke-linejoin:round;stroke-miterlimit:10;" d="
					M385.133,396.38c0,0,9.704-37.771,33.126-59.434"/>
			</g>
			<g>
				<path style="fill:#1A55B5;" d="M438.951,356.229c-0.831,1.488-2.388,2.503-3.801,3.299c-1.742,0.982-3.598,1.844-5.391,2.679
					c-2.303,1.071-4.685,2.179-6.883,3.56c-1.604,1.008-3.026,2.143-4.222,3.362c1.888-4.288,4.093-8.032,6.691-11.379
					c3.421-4.403,6.932-6.634,10.44-6.634c0.081,0,0.162,0.001,0.243,0.004c1.085,0.031,1.93,0.3,2.511,0.799
					C439.733,352.943,439.686,354.915,438.951,356.229z"/>
				<path style="fill:#1A55B5;" d="M442.87,380.652c-1.388,0.99-3.229,1.241-4.847,1.355c-1.995,0.142-4.041,0.127-6.018,0.115
					c-2.54-0.017-5.166-0.035-7.744,0.272c-1.88,0.225-3.652,0.643-5.254,1.233c3.541-3.068,7.136-5.508,10.917-7.421
					c4.976-2.516,9.104-3.03,12.275-1.529c0.073,0.035,0.146,0.07,0.218,0.108c0.967,0.492,1.616,1.097,1.928,1.796
					C444.982,378.016,444.096,379.778,442.87,380.652z"/>
				<path style="fill:#1A55B5;" d="M433.621,392.67c-1.154-0.158-2.187-0.897-3.046-1.598c-1.058-0.865-2.069-1.831-3.047-2.764
					c-1.255-1.199-2.553-2.439-3.979-3.494c-1.041-0.77-2.118-1.392-3.191-1.85c3.199,0.134,6.131,0.605,8.908,1.426
					c3.654,1.081,5.947,2.76,6.821,4.993c0.02,0.052,0.04,0.103,0.058,0.156c0.25,0.698,0.29,1.303,0.117,1.797
					C435.907,392.349,434.64,392.81,433.621,392.67z"/>
				
					<path style="fill:none;stroke:#2A294F;stroke-width:0.7798;stroke-linecap:round;stroke-linejoin:round;stroke-miterlimit:10;" d="
					M407.317,396.595c0,0,0.11-23.112,28.333-42.734"/>
				
					<path style="fill:none;stroke:#2A294F;stroke-width:0.7798;stroke-linecap:round;stroke-linejoin:round;stroke-miterlimit:10;" d="
					M407.317,396.595c0,0,8.667-18.567,32.158-18.567"/>
				
					<path style="fill:none;stroke:#2A294F;stroke-width:0.7798;stroke-linecap:round;stroke-linejoin:round;stroke-miterlimit:10;" d="
					M420.102,383.194c0,0,4.549-0.333,14.049,6.834"/>
			</g>
		</g>
		<g>
			<path style="fill:#DCE6EF;" d="M164.804,396.796c-6.524-24.659-13.085-49.33-20.754-73.212
				c-4.325-13.467-9.097-26.881-15.725-37.655c-6.629-10.773-15.411-18.722-24.227-18.666
				c-13.585,2.628-22.348,16.042-28.096,30.898c-3.769,9.741-5.596,21.543-8.262,31.838c-3.673,14.18-5.599,29.606-12.654,42.014
				c-4.939,8.686-12.531,6.469-17.648-1.334c-2.824-4.306-4.815-9.429-7.977-13.361c-3.162-3.932-8.147-6.492-12.161-4.015
				c-4.126,2.547-5.361,8.992-5.916,14.646c-0.824,8.391-1.546,16.323-2.896,23.926c-0.294,1.655-0.621,3.294-0.983,4.919H164.804z"
				/>
			<path style="fill:#FFC957;" d="M106.471,362.756c-4.076-4.701-9.235-8.758-10.862-14.691c-1.189-4.335-0.251-8.922,0.213-13.392
				c0.464-4.471,0.301-9.414-2.591-12.854c-2.383-2.835-6.147-4.067-9.768-4.845c-3.621-0.778-7.4-1.27-10.613-3.112
				c-5.217-2.991-4.178-8.08-6.979-12.544c-3.143-5.008-10.455-11.397-16.724-8.07c-6.638,3.522-5.586,14.217-1.171,18.939
				c2.929,3.132,6.679,6.137,7.11,10.404c0.649,6.423-6.711,12.207-4.687,18.338c1.495,4.529,7.203,6.085,10.022,9.932
				c2.788,3.805,2.227,9.137,0.585,13.56c-1.642,4.422-4.228,8.512-5.249,13.118c-2.09,9.425,5.305,15.937,13.73,18.038
				c7.742,1.931,24.441,1.02,24.441,1.02c5.959-2.085,12.566-7.319,15.842-13.039c2.475-4.322,2.818-9.8,0.9-14.397
				C109.684,366.791,108.172,364.718,106.471,362.756z"/>
			<path style="fill:none;stroke:#6AA5FE;stroke-linecap:round;stroke-linejoin:round;stroke-miterlimit:10;" d="M56.568,303.413
				c0,0,28.511,44.04,31.612,92.94"/>
			<g>
				<path style="fill:#6AA5FE;" d="M31.174,362.814c0.439-0.377,1.078-0.58,1.898-0.604c0.061-0.002,0.123-0.003,0.184-0.003
					c2.653,0,5.308,1.686,7.894,5.016c1.965,2.53,3.632,5.362,5.06,8.604c-0.904-0.922-1.98-1.78-3.192-2.542
					c-1.662-1.044-3.463-1.881-5.204-2.691c-1.356-0.632-2.759-1.283-4.076-2.026c-1.069-0.602-2.246-1.369-2.874-2.495
					C30.309,365.079,30.273,363.589,31.174,362.814z"/>
				<path style="fill:#6AA5FE;" d="M26.786,381.461c0.236-0.529,0.726-0.986,1.457-1.358c0.055-0.028,0.11-0.055,0.165-0.081
					c2.398-1.135,5.519-0.747,9.281,1.156c2.859,1.446,5.577,3.292,8.255,5.612c-1.211-0.446-2.551-0.762-3.973-0.932
					c-1.949-0.232-3.935-0.219-5.855-0.206c-1.495,0.01-3.042,0.021-4.551-0.086c-1.223-0.087-2.615-0.277-3.665-1.025
					C26.974,383.879,26.304,382.547,26.786,381.461z"/>
				<path style="fill:#6AA5FE;" d="M32.897,392.618c-0.131-0.374-0.101-0.831,0.088-1.359c0.014-0.04,0.029-0.079,0.044-0.118
					c0.66-1.688,2.395-2.958,5.158-3.775c2.1-0.621,4.317-0.977,6.735-1.078c-0.812,0.346-1.626,0.817-2.413,1.399
					c-1.078,0.798-2.06,1.736-3.009,2.642c-0.739,0.705-1.504,1.436-2.304,2.09c-0.649,0.53-1.43,1.088-2.303,1.208
					C34.124,393.733,33.166,393.384,32.897,392.618z"/>
				
					<path style="fill:none;stroke:#2A294F;stroke-width:0.7798;stroke-linecap:round;stroke-linejoin:round;stroke-miterlimit:10;" d="
					M54.784,396.595c0,0-0.083-17.476-21.424-32.313"/>
				
					<path style="fill:none;stroke:#2A294F;stroke-width:0.7798;stroke-linecap:round;stroke-linejoin:round;stroke-miterlimit:10;" d="
					M54.784,396.595c0,0-6.553-14.039-24.316-14.039"/>
				
					<path style="fill:none;stroke:#2A294F;stroke-width:0.7798;stroke-linecap:round;stroke-linejoin:round;stroke-miterlimit:10;" d="
					M45.117,386.462c0,0-3.44-0.251-10.623,5.168"/>
			</g>
		</g>
		<g>
			<path style="fill:#6AA5FE;" d="M283.74,396.595H95.58c-5.218,0-9.449-4.23-9.449-9.449v-255.15c0-5.219,4.231-9.449,9.449-9.449
				h188.16c5.219,0,9.449,4.23,9.449,9.449v255.15C293.189,392.365,288.958,396.595,283.74,396.595z"/>
			<path style="fill:#527EE9;" d="M86.131,189.31v197.836c0,5.219,4.231,9.449,9.449,9.449h188.16c5.219,0,9.449-4.23,9.449-9.449
				v-39.045L86.131,189.31z"/>
			<path style="fill:#F3F4F6;" d="M277.297,383.951H102.023c-2.133,0-3.862-1.729-3.862-3.862V139.054
				c0-2.133,1.729-3.862,3.862-3.862h175.274c2.133,0,3.862,1.729,3.862,3.862v241.035
				C281.158,382.222,279.429,383.951,277.297,383.951z"/>
			<g>
				<path style="fill:#1A55B5;" d="M205.356,117.372c0.013-0.259,0.039-0.513,0.039-0.775c0-8.69-7.045-15.736-15.736-15.736
					s-15.736,7.045-15.736,15.736c0,0.262,0.027,0.517,0.039,0.775H150.83v23.988h77.659v-23.988H205.356z"/>
				<polygon style="fill:#2C6BC6;" points="150.83,117.372 150.83,141.36 228.489,141.36 				"/>
				
					<ellipse transform="matrix(0.923 -0.3848 0.3848 0.923 -30.261 81.948)" style="fill:#527EE9;" cx="189.66" cy="116.597" rx="8.836" ry="8.836"/>
				<path style="fill:#6AA5FE;" d="M183.412,110.349c-3.451,3.451-3.451,9.046,0,12.496c3.451,3.451,9.046,3.451,12.496,0
					L183.412,110.349z"/>
				<rect x="150.83" y="141.36" style="fill:#CDE1F9;" width="77.659" height="1.652"/>
			</g>
		</g>
		<g>
			<g>
				<rect x="119.307" y="174.581" style="fill:none;stroke:#1A55B5;stroke-miterlimit:10;" width="29.455" height="29.455"/>
				<g>
					<g>
						<polyline style="fill:none;stroke:#F3F4F6;stroke-width:4;stroke-miterlimit:10;" points="127.926,190.815 136.934,197.887 
							155.248,180.242 						"/>
					</g>
					<g>
						<polyline style="fill:none;stroke:#FF746F;stroke-width:4;stroke-miterlimit:10;" points="125.926,188.815 134.934,195.887 
							153.248,178.242 						"/>
					</g>
				</g>
				<g>
					<path style="fill:#6AA5FE;" d="M258.878,182.942H162.9c-0.626,0-1.134-0.508-1.134-1.134l0,0c0-0.626,0.507-1.134,1.134-1.134
						h95.978c0.626,0,1.134,0.508,1.134,1.134l0,0C260.012,182.434,259.505,182.942,258.878,182.942z"/>
					<path style="fill:#6AA5FE;" d="M258.878,187.942H162.9c-0.626,0-1.134-0.508-1.134-1.134l0,0c0-0.626,0.507-1.134,1.134-1.134
						h95.978c0.626,0,1.134,0.508,1.134,1.134l0,0C260.012,187.434,259.505,187.942,258.878,187.942z"/>
					<path style="fill:#6AA5FE;" d="M258.878,192.942H162.9c-0.626,0-1.134-0.508-1.134-1.134l0,0c0-0.626,0.507-1.134,1.134-1.134
						h95.978c0.626,0,1.134,0.508,1.134,1.134l0,0C260.012,192.435,259.505,192.942,258.878,192.942z"/>
					<path style="fill:#6AA5FE;" d="M258.878,197.943H162.9c-0.626,0-1.134-0.508-1.134-1.134l0,0c0-0.626,0.507-1.134,1.134-1.134
						h95.978c0.626,0,1.134,0.508,1.134,1.134l0,0C260.012,197.435,259.505,197.943,258.878,197.943z"/>
				</g>
			</g>
			<g>
				<rect x="119.307" y="222" style="fill:none;stroke:#1A55B5;stroke-miterlimit:10;" width="29.455" height="29.455"/>
				<g>
					<g>
						<polyline style="fill:none;stroke:#F3F4F6;stroke-width:4;stroke-miterlimit:10;" points="127.926,238.234 136.934,245.305 
							155.248,227.661 						"/>
					</g>
					<g>
						<polyline style="fill:none;stroke:#FF746F;stroke-width:4;stroke-miterlimit:10;" points="125.926,236.234 134.934,243.305 
							153.248,225.661 						"/>
					</g>
				</g>
				<g>
					<path style="fill:#6AA5FE;" d="M258.878,230.36H162.9c-0.626,0-1.134-0.508-1.134-1.134l0,0c0-0.626,0.507-1.134,1.134-1.134
						h95.978c0.626,0,1.134,0.508,1.134,1.134l0,0C260.012,229.853,259.505,230.36,258.878,230.36z"/>
					<path style="fill:#6AA5FE;" d="M258.878,235.361H162.9c-0.626,0-1.134-0.508-1.134-1.134l0,0c0-0.626,0.507-1.134,1.134-1.134
						h95.978c0.626,0,1.134,0.508,1.134,1.134l0,0C260.012,234.853,259.505,235.361,258.878,235.361z"/>
					<path style="fill:#6AA5FE;" d="M258.878,240.361H162.9c-0.626,0-1.134-0.508-1.134-1.134l0,0c0-0.626,0.507-1.134,1.134-1.134
						h95.978c0.626,0,1.134,0.508,1.134,1.134l0,0C260.012,239.853,259.505,240.361,258.878,240.361z"/>
					<path style="fill:#6AA5FE;" d="M258.878,245.361H162.9c-0.626,0-1.134-0.507-1.134-1.134l0,0c0-0.626,0.507-1.134,1.134-1.134
						h95.978c0.626,0,1.134,0.507,1.134,1.134l0,0C260.012,244.854,259.505,245.361,258.878,245.361z"/>
				</g>
			</g>
			<g>
				<rect x="119.307" y="269.418" style="fill:none;stroke:#1A55B5;stroke-miterlimit:10;" width="29.455" height="29.455"/>
				<g>
					<g>
						<polyline style="fill:none;stroke:#F3F4F6;stroke-width:4;stroke-miterlimit:10;" points="127.926,285.652 136.934,292.724 
							155.248,275.079 						"/>
					</g>
					<g>
						<polyline style="fill:none;stroke:#FF746F;stroke-width:4;stroke-miterlimit:10;" points="125.926,283.652 134.934,290.724 
							153.248,273.079 						"/>
					</g>
				</g>
				<g>
					<path style="fill:#6AA5FE;" d="M258.878,277.779H162.9c-0.626,0-1.134-0.507-1.134-1.134l0,0c0-0.626,0.507-1.134,1.134-1.134
						h95.978c0.626,0,1.134,0.508,1.134,1.134l0,0C260.012,277.271,259.505,277.779,258.878,277.779z"/>
					<path style="fill:#6AA5FE;" d="M258.878,282.779H162.9c-0.626,0-1.134-0.508-1.134-1.134l0,0c0-0.626,0.507-1.134,1.134-1.134
						h95.978c0.626,0,1.134,0.508,1.134,1.134l0,0C260.012,282.271,259.505,282.779,258.878,282.779z"/>
					<path style="fill:#6AA5FE;" d="M258.878,287.779H162.9c-0.626,0-1.134-0.508-1.134-1.134l0,0c0-0.626,0.507-1.134,1.134-1.134
						h95.978c0.626,0,1.134,0.508,1.134,1.134l0,0C260.012,287.272,259.505,287.779,258.878,287.779z"/>
					<path style="fill:#6AA5FE;" d="M258.878,292.779H162.9c-0.626,0-1.134-0.507-1.134-1.134l0,0c0-0.626,0.507-1.134,1.134-1.134
						h95.978c0.626,0,1.134,0.507,1.134,1.134l0,0C260.012,292.272,259.505,292.779,258.878,292.779z"/>
				</g>
			</g>
			<g>
				<rect x="119.307" y="316.837" style="fill:none;stroke:#1A55B5;stroke-miterlimit:10;" width="29.455" height="29.455"/>
				<g>
					<g>
						<polyline style="fill:none;stroke:#F3F4F6;stroke-width:4;stroke-miterlimit:10;" points="127.926,333.07 136.934,340.142 
							155.248,322.498 						"/>
					</g>
					<g>
						<polyline style="fill:none;stroke:#FF746F;stroke-width:4;stroke-miterlimit:10;" points="125.926,331.07 134.934,338.142 
							153.248,320.498 						"/>
					</g>
				</g>
				<g>
					<path style="fill:#6AA5FE;" d="M258.878,325.197H162.9c-0.626,0-1.134-0.508-1.134-1.134l0,0c0-0.626,0.507-1.134,1.134-1.134
						h95.978c0.626,0,1.134,0.508,1.134,1.134l0,0C260.012,324.69,259.505,325.197,258.878,325.197z"/>
					<path style="fill:#6AA5FE;" d="M258.878,330.198H162.9c-0.626,0-1.134-0.508-1.134-1.134l0,0c0-0.626,0.507-1.134,1.134-1.134
						h95.978c0.626,0,1.134,0.508,1.134,1.134l0,0C260.012,329.69,259.505,330.198,258.878,330.198z"/>
					<path style="fill:#6AA5FE;" d="M258.878,335.198H162.9c-0.626,0-1.134-0.508-1.134-1.134l0,0c0-0.626,0.507-1.134,1.134-1.134
						h95.978c0.626,0,1.134,0.508,1.134,1.134l0,0C260.012,334.69,259.505,335.198,258.878,335.198z"/>
					<path style="fill:#6AA5FE;" d="M258.878,340.198H162.9c-0.626,0-1.134-0.508-1.134-1.134l0,0c0-0.626,0.507-1.134,1.134-1.134
						h95.978c0.626,0,1.134,0.508,1.134,1.134l0,0C260.012,339.69,259.505,340.198,258.878,340.198z"/>
				</g>
			</g>
		</g>
		<g>
			<path style="fill:#FE9280;" d="M301.6,199.844c-0.612,0.467-6.163,3.746-6.163,3.746l-3.939-5.044l1.172-5.751l8.479,0.529
				c0,0,1.483,4.291,1.484,4.293C302.985,198.636,302.357,199.266,301.6,199.844z"/>
			<path style="fill:#E86767;" d="M301.149,193.324l1.279,3.763l-3.911,1.575c-0.745,0.323-1.577,0.384-2.361,0.173
				c-1.725-0.464-2.845-2.126-2.629-3.899l0.253-2.068L301.149,193.324z"/>
			<path style="fill:#FF746F;" d="M299.229,198.352l3.391,0.494l1.857-3.182c0.363-0.574,0.191-1.334-0.384-1.696l0,0
				c-0.575-0.363-1.334-0.191-1.697,0.384L299.229,198.352z"/>
			<polygon style="fill:#FFFFFF;" points="296.663,211.954 289.672,213.721 287.172,233.961 295.355,234.295 			"/>
			<g>
				<path style="fill:#FE9280;" d="M388.563,228.384l-12.219-1.538l2.797-22.214l12.219,1.538
					c6.134,0.772,10.481,6.371,9.709,12.505l0,0C400.296,224.81,394.698,229.156,388.563,228.384z"/>
				<path style="opacity:0.2;fill:#777470;" d="M389.2,223.324l-12.219-1.538l-0.637,5.06l12.219,1.538
					c6.134,0.772,11.733-3.574,12.505-9.709c0.11-0.871,0.113-1.73,0.026-2.567C399.33,220.879,394.464,223.987,389.2,223.324z"/>
				<polygon style="fill:#FFC957;" points="374.856,226.658 245.222,209.936 248.019,187.722 377.652,204.444 				"/>
				<polygon style="fill:#FFF4DD;" points="222.127,195.746 245.222,209.936 248.019,187.722 				"/>
				<polygon style="opacity:0.2;fill:#777470;" points="222.127,195.746 245.222,209.936 245.906,204.503 				"/>
				<polygon style="fill:#2A294F;" points="229.839,193.357 222.127,195.746 229.006,199.972 				"/>
				
					<rect x="376.212" y="205.032" transform="matrix(0.9922 0.1249 -0.1249 0.9922 29.9962 -45.9725)" style="fill:#D3EAF5;" width="10.815" height="22.39"/>
				
					<rect x="383.301" y="204.518" transform="matrix(0.9922 0.1249 -0.1249 0.9922 30.079 -46.4096)" style="fill:#D3EAF5;" width="3.697" height="24.307"/>
				<polygon style="opacity:0.2;fill:#777470;" points="381.917,227.547 245.222,209.936 245.906,204.503 382.601,222.114 				"/>
				<polygon style="opacity:0.05;fill:#777470;" points="384.03,210.767 247.335,193.156 248.019,187.722 384.714,205.333 				"/>
				
					<rect x="382.247" y="221.329" transform="matrix(0.9922 0.1249 -0.1249 0.9922 31.1165 -46.2124)" style="opacity:0.15;fill:#777470;" width="3.697" height="7.43"/>
			</g>
			<path style="fill:#E86767;" d="M332.326,271.642l1.842-4.734l6.171-0.482c1.135-0.123,2.14,0.566,2.245,1.539l0,0
				c0.105,0.972-0.73,1.86-1.865,1.982L332.326,271.642z"/>
			<path style="fill:#FF746F;" d="M329.146,266.932l3.179,4.71l6.053-1.222l-6.744-10.094l-1.307,0.861
				C328.415,262.448,327.886,265.019,329.146,266.932z"/>
			<path style="fill:#1A55B5;" d="M335.102,191.062c-6.285-9.164-22.122-6.72-21.709,7.963c0.001,0.042,0.005,0.089,0.007,0.132
				c-0.038,1.862,0.023,3.757-0.463,5.508c-0.247,0.885-0.673,1.71-1.319,2.303c-0.64,0.601-1.471,0.955-2.345,1.141
				c-0.883,0.195-1.836,0.245-2.818,0.441c-0.988,0.202-1.951,0.563-2.824,1.082c-1.749,1.019-3.178,2.688-3.833,4.665
				c-1.253,3.921-0.251,8.456,2.703,11.406c0.742,0.724,1.603,1.34,2.548,1.78c0.943,0.459,2.014,0.631,2.883,0.806
				c1.828,0.399,3.676,0.926,5.564,1.297l0.053-0.163c-1.738-0.802-3.452-1.643-5.293-2.28c-0.961-0.337-1.785-0.532-2.527-0.992
				c-0.745-0.438-1.431-0.977-2.007-1.628c-1.162-1.291-2.008-2.883-2.492-4.584c-0.482-1.697-0.58-3.535-0.102-5.224
				c0.47-1.679,1.604-3.143,3.102-4.114c0.744-0.489,1.576-0.844,2.445-1.063c0.879-0.219,1.837-0.311,2.807-0.567
				c0.974-0.25,1.931-0.743,2.642-1.497c0.718-0.752,1.128-1.721,1.331-2.679c0.142-0.684,0.205-1.367,0.227-2.047
				c0.171,2.737-0.066,5.516-2.881,6.567c-1.623,0.606-3.204,0.607-4.712,1.613c-1.478,0.986-2.651,2.447-3.224,4.134
				c-1.765,5.194,2.835,11.911,8.244,12.486c2.236,0.237,4.476,0.779,6.689,1.176c0.619,0.111,9.323,1.895,9.394,1.686l10.07-29.807
				L335.102,191.062z"/>
			<polygon style="fill:#FFFFFF;" points="334.622,264.798 355.041,250.55 352.191,242.661 331.635,260.326 			"/>
			<path style="fill:#FFFFFF;" d="M349.589,248.599c0.967,2.044,3.408,2.918,5.453,1.951c2.044-0.967,2.918-3.408,1.951-5.453
				c-0.967-2.044-3.408-2.918-5.452-1.951C349.495,244.113,348.622,246.555,349.589,248.599z"/>
			<path style="fill:#FFFFFF;" d="M350.609,250.075l5.822-5.76l-16.813-18.906c-1.909-2.576-5.658-2.862-7.937-0.607l0,0
				c-2.279,2.255-2.032,8.524,0.524,10.46L350.609,250.075z"/>
			
				<rect x="322.756" y="209.787" transform="matrix(-0.9964 -0.0844 0.0844 -0.9964 632.9398 460.8037)" style="fill:#FF746F;" width="6.908" height="14.473"/>
			<path style="fill:#FFFFFF;" d="M290.827,230.897c-2.257,0.151-3.963,2.103-3.812,4.359c0.151,2.257,2.103,3.963,4.359,3.812
				c2.256-0.151,3.963-2.103,3.812-4.359C295.035,232.453,293.083,230.746,290.827,230.897z"/>
			<path style="fill:#FFFFFF;" d="M288.249,231.499l4.147,7.37l25.352-7.374c3.107-0.791,4.792-6.669,3.569-9.633l0,0
				c-1.224-2.964-4.789-4.156-7.549-2.524L288.249,231.499z"/>
			<path style="fill:#FFFFFF;" d="M327.042,259.933l12.831-31.483c0.648-2.577-1.089-5.143-3.722-5.5l-18.418-4.176
				c-2.633-0.357-4.99,1.655-5.052,4.311l-6.305,34.331L327.042,259.933z"/>
			<path style="fill:#FF746F;" d="M324.974,192.745c-2.126,2.69-5.951,3.823-6.851,6.29l-0.192,1.139
				c0,0.053-0.002,0.104,0.001,0.157l-0.022-0.036l-0.583,3.455c-0.738,4.371,2.207,8.512,6.578,9.25
				c4.371,0.738,8.512-2.207,9.25-6.577l0.656-3.887C333.359,198.577,326.13,198.272,324.974,192.745z"/>
			<path style="fill:#FF746F;" d="M332.32,204.578c-0.171,1.015,0.513,1.977,1.527,2.148c1.015,0.171,1.977-0.512,2.148-1.527
				c0.171-1.015-0.513-1.977-1.527-2.148C333.453,202.88,332.491,203.563,332.32,204.578z"/>
			<polygon style="fill:#1A55B5;" points="315.45,258.521 324.681,281.31 315.86,387.782 309.086,387.782 301.105,280.648 
				306.375,257.416 			"/>
			<polygon style="fill:#527EE9;" points="315.45,258.521 315.45,281.31 357.001,387.782 362.097,387.782 339.865,277.291 
				327.042,259.933 			"/>
			<polygon style="fill:#FF746F;" points="312.881,393.341 310.049,393.341 310.049,387.782 313.72,387.782 			"/>
			<polygon style="fill:#2A294F;" points="309.952,392.082 311.61,392.809 313.149,392.082 314.531,396.592 301.72,396.592 
				306.536,394.337 			"/>
			<polygon style="fill:#FF746F;" points="360.357,393.341 363.189,393.341 361.511,387.782 357.839,387.782 			"/>
			<polygon style="fill:#2A294F;" points="363.286,392.082 361.628,392.809 360.088,392.082 358.707,396.592 371.518,396.592 
				366.701,394.337 			"/>
			<path style="fill:#FFFFFF;" d="M318.858,235.942c0,3.211-2.603,5.814-5.815,5.814c-3.211,0-5.815-2.603-5.815-5.814
				c0-3.211,2.603-5.815,5.815-5.815C316.255,230.127,318.858,232.73,318.858,235.942z"/>
			<polygon style="fill:#FF746F;" points="318.264,218.929 319,231.415 329.789,220.421 			"/>
			<path style="fill:#1A55B5;" d="M341.755,193.71c-0.924-1.175-2.05-2.126-3.298-2.784c-2.028-1.068-4.321-0.952-6.181-2.554
				l1.453,14.652c2.669-0.762,2.511,4.986-0.574,3.397c0,0-6.113,2.616-8.432,8.338c-1.592,3.843-1.856,8.325-1.439,10.892
				c0.745,4.593,4.645,6.974,9.069,5.621c2.642-0.807,4.792-2.804,6.316-5.108c5.349-8.083,8.913-21.358,4.337-30.48
				C342.649,194.974,342.228,194.312,341.755,193.71z"/>
			<path style="fill:#FF746F;" d="M292.592,191.946l-0.15,0.93c-0.313,1.943,1.009,3.772,2.952,4.085l1.519,0.245
				c1.943,0.313,3.772-1.009,4.085-2.952l0.15-0.93L292.592,191.946z"/>
			<path style="fill:#FFFFFF;" d="M325.218,204.476c-0.475-0.3-3.637-0.889-4.019-0.677c-0.411,0.228-0.579,0.769-0.47,1.226
				c0.109,0.457,0.447,0.831,0.835,1.096c0.882,0.602,2.085,0.699,3.052,0.247c0.367-0.172,0.714-0.434,0.873-0.807
				C325.647,205.188,325.561,204.693,325.218,204.476z"/>
		</g>
		
			<line style="fill:none;stroke:#2A294F;stroke-width:0.7798;stroke-linecap:round;stroke-linejoin:round;stroke-miterlimit:10;" x1="8.376" y1="396.592" x2="492.495" y2="396.592"/>
	</g>
</g>
</svg>
